# xmcd
#
# Track frame offsets:
#	150
#	12929
#	28565
#	42578
#	54887
#	70275
#	84165
#	96346
#	111762
#	128029
#	141718
#	157067
#	174086
#	190291
#	206874
#
# Disc length: 2943 seconds
#
# Revision: 0
# Processed by: cddbd v1.4b42PL0 Copyright (c) Steve Scherf et al.
# Submitted via: EZCDDA 4.3.3.2
#
DISCID=d10b7d0f
DTITLE=Svenne and Lotta - The great collection cd 1
DYEAR=1900
DGENRE=
TTITLE0=Breaking Up Is Hard To Do
TTITLE1=Little Yellow Aeroplane
TTITLE2=Chapel Of Love
TTITLE3=Sandy
TTITLE4=All I Have To Do Is Dream
TTITLE5=Bang-a-boomerang
TTITLE6=Extra Extra
TTITLE7=Dance
TTITLE8=Let It Be Me
TTITLE9=Save The Last Dance For Me
TTITLE10=Do You Wanna Dance- Medley
TTITLE11=Tell Laura I Love Her
TTITLE12=Be My Baby
TTITLE13=If We Only Had The Time
TTITLE14=A Flower In My Garden
EXTD=0\n\n\n
EXTT0=
EXTT1=
EXTT2=
EXTT3=
EXTT4=
EXTT5=
EXTT6=
EXTT7=
EXTT8=
EXTT9=
EXTT10=
EXTT11=
EXTT12=
EXTT13=
EXTT14=
PLAYORDER=
